<!--
  - MIT License
  -
  - Copyright (c) 2023 Staatsbibliothek zu Berlin - Preußischer Kulturbesitz
  -
  - Permission is hereby granted, free of charge, to any person obtaining a copy
  - of this software and associated documentation files (the "Software"), to deal
  - in the Software without restriction, including without limitation the rights
  - to use, copy, modify, merge, publish, distribute, sublicense, and/or sell
  - copies of the Software, and to permit persons to whom the Software is
  - furnished to do so, subject to the following conditions:
  -
  - The above copyright notice and this permission notice shall be included in all
  - copies or substantial portions of the Software.
  -
  - THE SOFTWARE IS PROVIDED "AS IS", WITHOUT WARRANTY OF ANY KIND, EXPRESS OR
  - IMPLIED, INCLUDING BUT NOT LIMITED TO THE WARRANTIES OF MERCHANTABILITY,
  - FITNESS FOR A PARTICULAR PURPOSE AND NONINFRINGEMENT. IN NO EVENT SHALL THE
  - AUTHORS OR COPYRIGHT HOLDERS BE LIABLE FOR ANY CLAIM, DAMAGES OR OTHER
  - LIABILITY, WHETHER IN AN ACTION OF CONTRACT, TORT OR OTHERWISE, ARISING FROM,
  - OUT OF OR IN CONNECTION WITH THE SOFTWARE OR THE USE OR OTHER DEALINGS IN THE
  - SOFTWARE.
  -->

<svg width="201" height="51" viewBox="0 0 201 51" fill="none" xmlns="http://www.w3.org/2000/svg">
  <g clip-path="url(#clip0_10_597)">
    <path d="M1 2.93124H3.53449V14.5082H9.84112V2.93124H12.3756V29.046H9.84112V16.7348H3.53449V29.046H1V2.93124Z" fill="black"/>
    <path d="M23.3841 10.363C23.8614 10.8357 24.2369 11.401 24.4874 12.0243C24.7379 12.6476 24.8582 13.3156 24.8408 13.9871V29.0045H22.5254L22.3182 27.536C21.9677 28.1392 21.4595 28.6355 20.848 28.9715C20.2366 29.3075 19.5451 29.4704 18.848 29.4428C18.2375 29.466 17.63 29.3463 17.0738 29.0934C16.5177 28.8406 16.0282 28.4614 15.6444 27.986C14.857 27.0327 14.4369 25.8291 14.46 24.5929V22.1058C14.4421 21.4387 14.5582 20.7748 14.8013 20.1533C15.0444 19.5319 15.4096 18.9655 15.8753 18.4876C16.351 18.0044 16.922 17.6253 17.552 17.3746C18.182 17.1238 18.8573 17.0067 19.535 17.0308H22.3182V13.8213C22.3506 13.114 22.1112 12.4212 21.649 11.8849C21.4157 11.6361 21.1314 11.4406 20.8156 11.3119C20.4998 11.1831 20.1599 11.124 19.8192 11.1387C19.4726 11.1188 19.1259 11.1753 18.8035 11.3042C18.4812 11.4332 18.1911 11.6314 17.9539 11.8849C17.4943 12.4227 17.2552 13.1145 17.2847 13.8213V15.7991H14.7265V13.9752C14.7099 13.3087 14.8271 12.6456 15.0712 12.0251C15.3153 11.4047 15.6814 10.8395 16.1477 10.363C16.6172 9.88344 17.1813 9.50681 17.8042 9.25704C18.4271 9.00727 19.0952 8.88982 19.7659 8.91217C20.4359 8.89551 21.1023 9.01556 21.7244 9.265C22.3465 9.51445 22.9112 9.88804 23.3841 10.363ZM22.3182 19.2456H19.5053C19.1569 19.2286 18.8091 19.2888 18.4866 19.4219C18.1641 19.555 17.8751 19.7576 17.64 20.0154C17.1838 20.5565 16.9509 21.251 16.9886 21.9577V24.3264C16.9542 25.0752 17.2086 25.8086 17.6992 26.3753C17.9457 26.6407 18.2473 26.8487 18.5829 26.9848C18.9185 27.1209 19.2799 27.1817 19.6415 27.1629C20.0056 27.1799 20.3691 27.1184 20.7073 26.9825C21.0455 26.8466 21.3505 26.6395 21.6016 26.3753C22.0922 25.8153 22.3488 25.0881 22.3182 24.3442V19.2456Z" fill="black"/>
    <path d="M36.6073 10.2979C37.3671 11.2294 37.7721 12.4002 37.7501 13.6022V29.046H35.2097V13.8213C35.2392 13.1145 35.0002 12.4227 34.5406 11.8849C34.3073 11.6361 34.023 11.4407 33.7072 11.3119C33.3914 11.1831 33.0515 11.124 32.7108 11.1387C32.3642 11.1188 32.0174 11.1753 31.6951 11.3042C31.3727 11.4332 31.0827 11.6314 30.8454 11.8849C30.3832 12.4212 30.1438 13.114 30.1763 13.8213V29.046H27.6477V9.2734H29.9631L30.1881 10.6887C30.533 10.1245 31.0221 9.66244 31.605 9.35017C32.1879 9.03791 32.8435 8.88671 33.5043 8.91217C34.0935 8.88661 34.6807 8.9985 35.2192 9.239C35.7578 9.4795 36.233 9.84201 36.6073 10.2979Z" fill="black"/>
    <path d="M47.9296 29.046L47.746 27.6248C47.4006 28.1899 46.9106 28.6525 46.3265 28.9648C45.7425 29.2772 45.0857 29.4278 44.4239 29.4013C43.8333 29.4281 43.2446 29.3174 42.7041 29.0779C42.1636 28.8385 41.6861 28.4769 41.3091 28.0216C40.5464 27.085 40.1432 25.9069 40.1721 24.6995V13.6022C40.1485 12.401 40.5513 11.2302 41.3091 10.2979C41.6834 9.83821 42.16 9.47245 42.7008 9.2298C43.2416 8.98714 43.8317 8.87432 44.4239 8.90033C45.0856 8.87443 45.7422 9.02538 46.3261 9.33764C46.91 9.64989 47.4001 10.1122 47.746 10.6768V2.93124H50.2805V29.046H47.9296ZM43.3817 11.873C42.9179 12.4087 42.6764 13.1015 42.7066 13.8094V24.4685C42.6754 25.1784 42.917 25.8733 43.3817 26.4108C43.6189 26.6643 43.909 26.8625 44.2313 26.9915C44.5537 27.1204 44.9004 27.1769 45.247 27.157C45.5871 27.174 45.9269 27.116 46.2421 26.9871C46.5573 26.8581 46.8402 26.6614 47.0709 26.4108C47.5356 25.8733 47.7771 25.1784 47.746 24.4685V13.8094C47.7762 13.1015 47.5347 12.4087 47.0709 11.873C46.8337 11.6196 46.5436 11.4213 46.2213 11.2924C45.8989 11.1635 45.5522 11.107 45.2056 11.1269C44.8645 11.1113 44.5242 11.1712 44.209 11.3022C43.8937 11.4332 43.6112 11.6322 43.3817 11.8849V11.873Z" fill="black"/>
    <path d="M61.3008 27.9623C60.328 28.8967 59.0315 29.4186 57.6826 29.4186C56.3338 29.4186 55.0372 28.8967 54.0645 27.9623C53.5965 27.4857 53.2295 26.9197 52.9853 26.298C52.7411 25.6763 52.6248 25.0118 52.6433 24.3442V22.3308H55.1837V24.3797C55.1456 25.0985 55.3852 25.8044 55.8528 26.3516C56.0901 26.6051 56.3801 26.8033 56.7025 26.9323C57.0248 27.0612 57.3716 27.1177 57.7182 27.0978C58.0589 27.1125 58.3988 27.0534 58.7146 26.9246C59.0304 26.7958 59.3147 26.6004 59.548 26.3516C60.0183 25.806 60.2583 25.0989 60.2171 24.3797C60.2398 23.5985 59.9978 22.8326 59.5302 22.2064C58.8836 21.4388 58.1367 20.7616 57.3096 20.193C56.066 19.2771 55.1521 18.5665 54.5678 18.0612C54.0024 17.5591 53.5347 16.9568 53.1881 16.2847C52.8351 15.5672 52.6624 14.7745 52.6847 13.9752C52.6687 13.3079 52.7876 12.6442 53.0344 12.024C53.2811 11.4038 53.6506 10.8398 54.1207 10.3658C54.5907 9.8919 55.1517 9.51779 55.7699 9.26596C56.388 9.01414 57.0507 8.88977 57.7182 8.90033C58.3898 8.87952 59.0583 8.99883 59.6813 9.25065C60.3042 9.50248 60.8679 9.88131 61.3363 10.363C61.8042 10.8409 62.1711 11.408 62.4152 12.0306C62.6594 12.6532 62.7758 13.3186 62.7575 13.9871V15.811H60.2171V13.8213C60.2496 13.114 60.0102 12.4212 59.548 11.8849C59.0599 11.4071 58.4041 11.1395 57.7211 11.1395C57.0381 11.1395 56.3823 11.4071 55.8943 11.8849C55.4305 12.4206 55.189 13.1133 55.2192 13.8213C55.2043 14.5031 55.4356 15.1674 55.8706 15.6925C56.5557 16.4197 57.3137 17.0745 58.1327 17.6467C59.0641 18.3278 59.9576 19.0593 60.8093 19.8377C61.4048 20.3884 61.8928 21.0451 62.2483 21.7741C62.6012 22.5798 62.773 23.453 62.7516 24.3323C62.7717 25.0045 62.6532 25.6737 62.4036 26.2982C62.154 26.9226 61.7786 27.4891 61.3008 27.9623Z" fill="black"/>
    <path d="M73.393 10.363C73.8608 10.8409 74.2277 11.408 74.4719 12.0306C74.716 12.6532 74.8325 13.3186 74.8142 13.9871V15.811H72.2738V13.8213C72.3033 13.1145 72.0642 12.4227 71.6046 11.8849C71.3713 11.6361 71.087 11.4407 70.7712 11.3119C70.4554 11.1831 70.1155 11.124 69.7748 11.1387C69.4292 11.1197 69.0836 11.1766 68.7623 11.3055C68.4411 11.4344 68.152 11.6322 67.9154 11.8849C67.4558 12.4227 67.2168 13.1145 67.2462 13.8213V24.3797C67.2082 25.0985 67.4478 25.8044 67.9154 26.3516C68.1526 26.6051 68.4427 26.8033 68.765 26.9323C69.0874 27.0612 69.4341 27.1177 69.7807 27.0978C70.1205 27.1116 70.4592 27.0521 70.774 26.9234C71.0887 26.7946 71.372 26.5996 71.6046 26.3516C72.0651 25.812 72.3042 25.118 72.2738 24.4093V22.3308H74.8142V24.3442C74.8327 25.0118 74.7163 25.6763 74.4721 26.298C74.2279 26.9197 73.8609 27.4857 73.393 27.9623C72.9247 28.4438 72.3609 28.8221 71.7378 29.073C71.1147 29.3239 70.4461 29.4418 69.7748 29.4191C69.1046 29.4328 68.4385 29.3109 67.8166 29.0607C67.1947 28.8105 66.6298 28.4372 66.1558 27.9632C65.6818 27.4892 65.3085 26.9243 65.0583 26.3023C64.8081 25.6804 64.6862 25.0144 64.6999 24.3442V13.9752C64.6854 13.3048 64.8067 12.6384 65.0566 12.0161C65.3065 11.3938 65.6797 10.8285 66.1539 10.3544C66.6281 9.88017 67.1934 9.50689 67.8157 9.257C68.4379 9.00711 69.1044 8.88579 69.7748 8.90033C70.4464 8.87952 71.115 8.99883 71.7379 9.25065C72.3609 9.50248 72.9245 9.88131 73.393 10.363Z" fill="black"/>
    <path d="M86.0714 10.2979C86.8335 11.2281 87.2388 12.3998 87.2143 13.6022V29.046H84.6738V13.8213C84.7033 13.1145 84.4643 12.4227 84.0047 11.8849C83.7714 11.6361 83.4871 11.4407 83.1713 11.3119C82.8555 11.1831 82.5156 11.124 82.1749 11.1387C81.8283 11.1188 81.4815 11.1753 81.1592 11.3043C80.8368 11.4332 80.5468 11.6314 80.3095 11.8849C79.85 12.4227 79.6109 13.1145 79.6404 13.8213V29.046H77.1V2.93124H79.6404V10.6887C79.9822 10.1443 80.457 9.69593 81.0202 9.38591C81.8422 8.94848 82.7875 8.80057 83.7039 8.966C84.6202 9.13144 85.4542 9.6006 86.0714 10.2979Z" fill="black"/>
    <path d="M90.1988 9.2734H92.6208L92.7333 10.6887C93.0909 10.1575 93.5622 9.71246 94.1131 9.38592C94.6679 9.06155 95.3002 8.89373 95.9429 8.90033C96.3227 8.90881 96.6994 8.97061 97.0621 9.08391L97.0265 11.1387H95.25C94.9034 11.1188 94.5567 11.1753 94.2343 11.3043C93.912 11.4332 93.6219 11.6314 93.3847 11.8849C92.9209 12.4206 92.6794 13.1133 92.7096 13.8213V29.046H90.1751L90.1988 9.2734Z" fill="black"/>
    <path d="M101.077 29.046H98.5366V9.27341H101.077V29.046Z" fill="black"/>
    <path d="M118.445 32.1016C118.089 32.117 117.733 32.0527 117.404 31.9134C117.075 31.7741 116.782 31.5633 116.545 31.2963C116.055 30.7217 115.802 29.9835 115.834 29.2296V11.5118H118.114V9.27341H115.834V4.1985L113.299 4.4413V9.29118H108.183V5.07492C108.157 4.33271 108.41 3.60774 108.894 3.04377C109.131 2.77679 109.424 2.56599 109.753 2.42668C110.082 2.28738 110.438 2.22306 110.795 2.23842L110.907 0.0769913L110.723 0.041461C110.576 0.00787725 110.425 -0.00606076 110.273 9.02161e-06C109.466 -0.00158956 108.674 0.217513 107.982 0.633633C107.267 1.06392 106.68 1.67721 106.282 2.41015C105.847 3.23616 105.629 4.15925 105.649 5.09268V9.23788H103.446V11.4763H105.649V29.046H108.183V11.5118H113.276V29.2296C113.256 30.163 113.474 31.0861 113.909 31.9121C114.294 32.6349 114.869 33.2381 115.573 33.6558C116.277 34.0736 117.082 34.2898 117.901 34.2808C118.114 34.2955 118.329 34.2715 118.534 34.2098L118.445 32.1016Z" fill="black"/>
    <path d="M119.825 13.9752C119.811 13.3048 119.932 12.6384 120.182 12.0161C120.432 11.3938 120.805 10.8285 121.279 10.3544C121.753 9.88017 122.319 9.50689 122.941 9.257C123.563 9.00711 124.23 8.88579 124.9 8.90033C125.572 8.88024 126.24 8.99989 126.863 9.25167C127.486 9.50346 128.049 9.88189 128.518 10.363C128.985 10.8412 129.351 11.4085 129.594 12.0311C129.838 12.6537 129.953 13.3189 129.934 13.9871V20.2049H122.395V24.3797C122.346 25.0949 122.575 25.8015 123.035 26.3516C123.267 26.6023 123.551 26.7991 123.867 26.928C124.183 27.0569 124.524 27.1149 124.865 27.0978C125.211 27.1177 125.558 27.0612 125.88 26.9323C126.203 26.8033 126.493 26.6051 126.73 26.3516C127.19 25.812 127.429 25.118 127.399 24.4093V22.3308H129.934V24.3442C129.953 25.0114 129.837 25.6757 129.594 26.2973C129.351 26.919 128.985 27.4852 128.518 27.9623C128.049 28.4432 127.486 28.8212 126.863 29.072C126.24 29.3228 125.571 29.441 124.9 29.4191C124.23 29.4328 123.564 29.3109 122.942 29.0607C122.32 28.8105 121.755 28.4372 121.281 27.9632C120.807 27.4892 120.434 26.9243 120.184 26.3023C119.933 25.6804 119.811 25.0144 119.825 24.3442V13.9752ZM127.399 17.9665V13.8213C127.428 13.1145 127.189 12.4227 126.73 11.8849C126.497 11.6361 126.212 11.4407 125.896 11.3119C125.581 11.1831 125.241 11.124 124.9 11.1387C124.553 11.1188 124.207 11.1753 123.884 11.3042C123.562 11.4332 123.272 11.6314 123.035 11.8849C122.583 12.4256 122.354 13.118 122.395 13.8213V17.9665H127.399Z" fill="black"/>
    <path d="M141.576 10.2979C142.333 11.2302 142.736 12.4009 142.713 13.6022V29.046H140.16V13.8213C140.19 13.1145 139.951 12.4227 139.491 11.8849C139.258 11.6361 138.974 11.4407 138.658 11.3119C138.342 11.1831 138.002 11.124 137.661 11.1387C137.315 11.1188 136.968 11.1753 136.646 11.3042C136.323 11.4332 136.033 11.6314 135.796 11.8849C135.334 12.4212 135.094 13.114 135.127 13.8213V29.046H132.586V9.2734H134.902L135.127 10.6887C135.472 10.1245 135.961 9.66244 136.544 9.35017C137.127 9.03791 137.782 8.88671 138.443 8.91217C139.037 8.88193 139.63 8.99155 140.174 9.23222C140.718 9.47289 141.198 9.83788 141.576 10.2979Z" fill="black"/>
    <path d="M147.859 9.27343L148.048 10.6887C148.394 10.124 148.884 9.66176 149.468 9.3495C150.052 9.03725 150.708 8.8863 151.37 8.9122C151.96 8.88682 152.549 8.99814 153.089 9.23747C153.629 9.4768 154.107 9.83767 154.485 10.292C155.249 11.2275 155.653 12.4063 155.622 13.614V24.7173C155.645 25.9184 155.242 27.089 154.485 28.0216C154.11 28.4802 153.633 28.8452 153.092 29.0877C152.552 29.3303 151.962 29.4437 151.37 29.4191C150.708 29.4456 150.052 29.2949 149.467 28.9826C148.883 28.6703 148.393 28.2077 148.048 27.6426V35.3882H145.49V9.27343H147.859ZM152.412 26.4464C152.875 25.9083 153.115 25.2132 153.082 24.5041V13.845C153.114 13.1377 152.875 12.4449 152.412 11.9086C152.175 11.6551 151.885 11.4569 151.563 11.328C151.24 11.199 150.894 11.1425 150.547 11.1625C150.206 11.1478 149.866 11.2068 149.551 11.3356C149.235 11.4644 148.951 11.6598 148.717 11.9086C148.258 12.4464 148.019 13.1382 148.048 13.845V24.5041C148.018 25.2128 148.257 25.9068 148.717 26.4464C148.954 26.6999 149.245 26.8981 149.567 27.027C149.889 27.156 150.236 27.2125 150.583 27.1925C150.924 27.2057 151.265 27.1448 151.58 27.014C151.896 26.8831 152.18 26.6855 152.412 26.4346V26.4464Z" fill="#D65151"/>
    <path d="M166.897 10.363C167.365 10.8409 167.732 11.408 167.976 12.0306C168.22 12.6532 168.336 13.3186 168.318 13.9871V24.3442C168.337 25.0118 168.22 25.6763 167.976 26.298C167.732 26.9197 167.365 27.4857 166.897 27.9623C166.426 28.4469 165.858 28.8269 165.231 29.0779C164.603 29.3289 163.93 29.4451 163.255 29.4191C162.585 29.4328 161.919 29.3109 161.298 29.0606C160.676 28.8104 160.112 28.437 159.638 27.9629C159.164 27.4888 158.792 26.9238 158.542 26.3019C158.293 25.68 158.172 25.0141 158.186 24.3442V13.9752C158.17 13.3049 158.29 12.6382 158.539 12.0155C158.788 11.3929 159.16 10.8272 159.634 10.3528C160.108 9.87835 160.673 9.505 161.296 9.25535C161.918 9.00569 162.585 8.88492 163.255 8.90033C163.931 8.87619 164.604 8.99387 165.231 9.2458C165.858 9.49773 166.426 9.87831 166.897 10.363ZM161.413 11.8967C160.954 12.4345 160.715 13.1263 160.744 13.8331V24.3797C160.706 25.0985 160.946 25.8044 161.413 26.3516C161.651 26.5966 161.938 26.7875 162.256 26.9111C162.574 27.0348 162.915 27.0884 163.255 27.0682C163.598 27.0925 163.941 27.0409 164.262 26.9171C164.582 26.7932 164.871 26.6001 165.108 26.3516C165.573 25.8141 165.815 25.1192 165.784 24.4093V13.8213C165.814 13.1133 165.572 12.4206 165.108 11.8849C164.874 11.631 164.586 11.4324 164.266 11.3034C163.945 11.1743 163.6 11.1181 163.255 11.1387C162.912 11.1223 162.57 11.1805 162.252 11.3094C161.934 11.4382 161.648 11.6346 161.413 11.8849V11.8967Z" fill="#D65151"/>
    <path d="M183.715 27.2162C183.358 27.2319 183.003 27.1683 182.674 27.03C182.346 26.8918 182.052 26.6823 181.814 26.4168C181.325 25.8395 181.072 25.0997 181.103 24.3442V11.5118H183.389V9.2734H181.115V4.19849L178.569 4.44128V9.29116H177.852C177.26 9.29116 176.987 9.29116 176.668 9.29116H176.366C175.84 9.2948 175.324 9.43346 174.867 9.69384C174.317 9.98886 173.841 10.4062 173.476 10.9137L173.417 9.27932H170.989V29.046H173.529V14.2417C173.497 13.5327 173.736 12.8381 174.198 12.2994C174.437 12.048 174.728 11.8509 175.049 11.7211C175.371 11.5914 175.717 11.5321 176.064 11.5473H177.84H178.592V24.3442C178.571 25.2797 178.789 26.2052 179.226 27.0326C179.614 27.7708 180.201 28.3861 180.919 28.8091C181.619 29.2071 182.412 29.4116 183.217 29.4013C183.431 29.4179 183.647 29.3917 183.851 29.3243L183.715 27.2162Z" fill="#D65151"/>
    <path d="M193.959 10.363C194.436 10.8357 194.812 11.4011 195.062 12.0243C195.313 12.6476 195.433 13.3156 195.416 13.9871V29.0046H193.1L192.864 27.536C192.512 28.1384 192.004 28.6339 191.392 28.9698C190.781 29.3056 190.09 29.4691 189.393 29.4428C188.782 29.4664 188.173 29.3471 187.616 29.0942C187.059 28.8413 186.569 28.4618 186.184 27.986C185.396 27.0328 184.976 25.8291 185 24.5929V22.1058C184.981 21.4381 185.097 20.7736 185.342 20.1519C185.586 19.5302 185.953 18.9642 186.421 18.4876C186.895 18.004 187.465 17.6246 188.094 17.3737C188.723 17.1229 189.398 17.0061 190.074 17.0309H192.864V13.8213C192.894 13.1133 192.652 12.4206 192.188 11.8849C191.958 11.6343 191.675 11.4376 191.36 11.3087C191.044 11.1797 190.705 11.1217 190.365 11.1388C190.018 11.1188 189.671 11.1753 189.349 11.3043C189.027 11.4332 188.737 11.6314 188.499 11.8849C188.035 12.4206 187.794 13.1133 187.824 13.8213V15.7991H185.29V13.9753C185.274 13.3078 185.393 12.6441 185.639 12.0236C185.886 11.403 186.254 10.8383 186.723 10.363C187.193 9.88404 187.757 9.5078 188.38 9.25807C189.002 9.00835 189.67 8.89057 190.341 8.91219C191.011 8.89448 191.678 9.01406 192.3 9.26356C192.922 9.51306 193.487 9.88721 193.959 10.363ZM192.864 19.2456H190.08C189.734 19.2256 189.387 19.2822 189.065 19.4111C188.742 19.54 188.452 19.7382 188.215 19.9917C187.745 20.5356 187.501 21.2393 187.534 21.9577V24.3264C187.502 25.0739 187.753 25.8059 188.239 26.3753C188.485 26.6407 188.787 26.8488 189.122 26.9848C189.458 27.1209 189.819 27.1817 190.181 27.1629C190.545 27.1807 190.909 27.1195 191.247 26.9836C191.586 26.8477 191.891 26.6402 192.141 26.3753C192.635 25.8171 192.894 25.0892 192.864 24.3442V19.2456Z" fill="#D65151"/>
    <path d="M201 29.046H198.466V2.93124H201V29.046Z" fill="#D65151"/>
    <path d="M99.8156 5.29992C100.767 5.29992 101.539 4.52841 101.539 3.5767C101.539 2.625 100.767 1.85349 99.8156 1.85349C98.8639 1.85349 98.0924 2.625 98.0924 3.5767C98.0924 4.52841 98.8639 5.29992 99.8156 5.29992Z" fill="#D65151"/>
  </g>
  <path d="M8.54688 45.7734V47H2.52344V45.7734H8.54688ZM2.82812 35.625V47H1.32031V35.625H2.82812ZM7.75 40.5156V41.7422H2.52344V40.5156H7.75ZM8.46875 35.625V36.8594H2.52344V35.625H8.46875ZM11.6406 39.875V47H10.1953V38.5469H11.6016L11.6406 39.875ZM14.2812 38.5L14.2734 39.8438C14.1536 39.8177 14.0391 39.8021 13.9297 39.7969C13.8255 39.7865 13.7057 39.7812 13.5703 39.7812C13.237 39.7812 12.9427 39.8333 12.6875 39.9375C12.4323 40.0417 12.2161 40.1875 12.0391 40.375C11.862 40.5625 11.7214 40.7865 11.6172 41.0469C11.5182 41.3021 11.4531 41.5833 11.4219 41.8906L11.0156 42.125C11.0156 41.6146 11.0651 41.1354 11.1641 40.6875C11.2682 40.2396 11.4271 39.8438 11.6406 39.5C11.8542 39.151 12.125 38.8802 12.4531 38.6875C12.7865 38.4896 13.1823 38.3906 13.6406 38.3906C13.7448 38.3906 13.8646 38.4036 14 38.4297C14.1354 38.4505 14.2292 38.474 14.2812 38.5ZM17.8984 47H16.4531V37.6562C16.4531 37.0469 16.5625 36.5339 16.7812 36.1172C17.0052 35.6953 17.3255 35.3776 17.7422 35.1641C18.1589 34.9453 18.6536 34.8359 19.2266 34.8359C19.3932 34.8359 19.5599 34.8464 19.7266 34.8672C19.8984 34.888 20.0651 34.9193 20.2266 34.9609L20.1484 36.1406C20.0391 36.1146 19.9141 36.0964 19.7734 36.0859C19.638 36.0755 19.5026 36.0703 19.3672 36.0703C19.0599 36.0703 18.7943 36.1328 18.5703 36.2578C18.3516 36.3776 18.1849 36.5547 18.0703 36.7891C17.9557 37.0234 17.8984 37.3125 17.8984 37.6562V47ZM19.6953 38.5469V39.6562H15.1172V38.5469H19.6953ZM26.2891 45.5547V41.2031C26.2891 40.8698 26.2214 40.5807 26.0859 40.3359C25.9557 40.0859 25.7578 39.8932 25.4922 39.7578C25.2266 39.6224 24.8984 39.5547 24.5078 39.5547C24.1432 39.5547 23.8229 39.6172 23.5469 39.7422C23.276 39.8672 23.0625 40.0312 22.9062 40.2344C22.7552 40.4375 22.6797 40.6562 22.6797 40.8906H21.2344C21.2344 40.5885 21.3125 40.2891 21.4688 39.9922C21.625 39.6953 21.849 39.4271 22.1406 39.1875C22.4375 38.9427 22.7917 38.75 23.2031 38.6094C23.6198 38.4635 24.0833 38.3906 24.5938 38.3906C25.2083 38.3906 25.75 38.4948 26.2188 38.7031C26.6927 38.9115 27.0625 39.2266 27.3281 39.6484C27.599 40.0651 27.7344 40.5885 27.7344 41.2188V45.1562C27.7344 45.4375 27.7578 45.737 27.8047 46.0547C27.8568 46.3724 27.9323 46.6458 28.0312 46.875V47H26.5234C26.4505 46.8333 26.3932 46.612 26.3516 46.3359C26.3099 46.0547 26.2891 45.7943 26.2891 45.5547ZM26.5391 41.875L26.5547 42.8906H25.0938C24.6823 42.8906 24.3151 42.9245 23.9922 42.9922C23.6693 43.0547 23.3984 43.151 23.1797 43.2812C22.9609 43.4115 22.7943 43.5755 22.6797 43.7734C22.5651 43.9661 22.5078 44.1927 22.5078 44.4531C22.5078 44.7188 22.5677 44.9609 22.6875 45.1797C22.8073 45.3984 22.987 45.5729 23.2266 45.7031C23.4714 45.8281 23.7708 45.8906 24.125 45.8906C24.5677 45.8906 24.9583 45.7969 25.2969 45.6094C25.6354 45.4219 25.9036 45.1927 26.1016 44.9219C26.3047 44.651 26.4141 44.388 26.4297 44.1328L27.0469 44.8281C27.0104 45.0469 26.9115 45.2891 26.75 45.5547C26.5885 45.8203 26.3724 46.0755 26.1016 46.3203C25.8359 46.5599 25.5182 46.7604 25.1484 46.9219C24.7839 47.0781 24.3724 47.1562 23.9141 47.1562C23.3411 47.1562 22.8385 47.0443 22.4062 46.8203C21.9792 46.5964 21.6458 46.2969 21.4062 45.9219C21.1719 45.5417 21.0547 45.1172 21.0547 44.6484C21.0547 44.1953 21.1432 43.7969 21.3203 43.4531C21.4974 43.1042 21.7526 42.8151 22.0859 42.5859C22.4193 42.3516 22.8203 42.1745 23.2891 42.0547C23.7578 41.9349 24.2812 41.875 24.8594 41.875H26.5391ZM34.9297 44.7578C34.9297 44.5495 34.8828 44.3568 34.7891 44.1797C34.7005 43.9974 34.5156 43.8333 34.2344 43.6875C33.9583 43.5365 33.5417 43.4062 32.9844 43.2969C32.5156 43.1979 32.0911 43.0807 31.7109 42.9453C31.3359 42.8099 31.0156 42.6458 30.75 42.4531C30.4896 42.2604 30.2891 42.0339 30.1484 41.7734C30.0078 41.513 29.9375 41.2083 29.9375 40.8594C29.9375 40.526 30.0104 40.2109 30.1562 39.9141C30.3073 39.6172 30.5182 39.3542 30.7891 39.125C31.0651 38.8958 31.3958 38.7161 31.7812 38.5859C32.1667 38.4557 32.5964 38.3906 33.0703 38.3906C33.7474 38.3906 34.3255 38.5104 34.8047 38.75C35.2839 38.9896 35.651 39.3099 35.9062 39.7109C36.1615 40.1068 36.2891 40.5469 36.2891 41.0312H34.8438C34.8438 40.7969 34.7734 40.5703 34.6328 40.3516C34.4974 40.1276 34.2969 39.9427 34.0312 39.7969C33.7708 39.651 33.4505 39.5781 33.0703 39.5781C32.6693 39.5781 32.3438 39.6406 32.0938 39.7656C31.849 39.8854 31.6693 40.0391 31.5547 40.2266C31.4453 40.4141 31.3906 40.612 31.3906 40.8203C31.3906 40.9766 31.4167 41.1172 31.4688 41.2422C31.526 41.362 31.625 41.474 31.7656 41.5781C31.9062 41.6771 32.1042 41.7708 32.3594 41.8594C32.6146 41.9479 32.9401 42.0365 33.3359 42.125C34.0286 42.2812 34.599 42.4688 35.0469 42.6875C35.4948 42.9062 35.8281 43.1745 36.0469 43.4922C36.2656 43.8099 36.375 44.1953 36.375 44.6484C36.375 45.0182 36.2969 45.3568 36.1406 45.6641C35.9896 45.9714 35.7682 46.237 35.4766 46.4609C35.1901 46.6797 34.8464 46.8516 34.4453 46.9766C34.0495 47.0964 33.6042 47.1562 33.1094 47.1562C32.3646 47.1562 31.7344 47.0234 31.2188 46.7578C30.7031 46.4922 30.3125 46.1484 30.0469 45.7266C29.7812 45.3047 29.6484 44.8594 29.6484 44.3906H31.1016C31.1224 44.7865 31.237 45.1016 31.4453 45.3359C31.6536 45.5651 31.9089 45.7292 32.2109 45.8281C32.513 45.9219 32.8125 45.9688 33.1094 45.9688C33.5052 45.9688 33.8359 45.9167 34.1016 45.8125C34.3724 45.7083 34.5781 45.5651 34.7188 45.3828C34.8594 45.2005 34.9297 44.9922 34.9297 44.7578ZM43.1953 44.7578C43.1953 44.5495 43.1484 44.3568 43.0547 44.1797C42.9661 43.9974 42.7812 43.8333 42.5 43.6875C42.224 43.5365 41.8073 43.4062 41.25 43.2969C40.7812 43.1979 40.3568 43.0807 39.9766 42.9453C39.6016 42.8099 39.2812 42.6458 39.0156 42.4531C38.7552 42.2604 38.5547 42.0339 38.4141 41.7734C38.2734 41.513 38.2031 41.2083 38.2031 40.8594C38.2031 40.526 38.276 40.2109 38.4219 39.9141C38.5729 39.6172 38.7839 39.3542 39.0547 39.125C39.3307 38.8958 39.6615 38.7161 40.0469 38.5859C40.4323 38.4557 40.862 38.3906 41.3359 38.3906C42.013 38.3906 42.5911 38.5104 43.0703 38.75C43.5495 38.9896 43.9167 39.3099 44.1719 39.7109C44.4271 40.1068 44.5547 40.5469 44.5547 41.0312H43.1094C43.1094 40.7969 43.0391 40.5703 42.8984 40.3516C42.763 40.1276 42.5625 39.9427 42.2969 39.7969C42.0365 39.651 41.7161 39.5781 41.3359 39.5781C40.9349 39.5781 40.6094 39.6406 40.3594 39.7656C40.1146 39.8854 39.9349 40.0391 39.8203 40.2266C39.7109 40.4141 39.6562 40.612 39.6562 40.8203C39.6562 40.9766 39.6823 41.1172 39.7344 41.2422C39.7917 41.362 39.8906 41.474 40.0312 41.5781C40.1719 41.6771 40.3698 41.7708 40.625 41.8594C40.8802 41.9479 41.2057 42.0365 41.6016 42.125C42.2943 42.2812 42.8646 42.4688 43.3125 42.6875C43.7604 42.9062 44.0938 43.1745 44.3125 43.4922C44.5312 43.8099 44.6406 44.1953 44.6406 44.6484C44.6406 45.0182 44.5625 45.3568 44.4062 45.6641C44.2552 45.9714 44.0339 46.237 43.7422 46.4609C43.4557 46.6797 43.112 46.8516 42.7109 46.9766C42.3151 47.0964 41.8698 47.1562 41.375 47.1562C40.6302 47.1562 40 47.0234 39.4844 46.7578C38.9688 46.4922 38.5781 46.1484 38.3125 45.7266C38.0469 45.3047 37.9141 44.8594 37.9141 44.3906H39.3672C39.388 44.7865 39.5026 45.1016 39.7109 45.3359C39.9193 45.5651 40.1745 45.7292 40.4766 45.8281C40.7786 45.9219 41.0781 45.9688 41.375 45.9688C41.7708 45.9688 42.1016 45.9167 42.3672 45.8125C42.638 45.7083 42.8438 45.5651 42.9844 45.3828C43.125 45.2005 43.1953 44.9922 43.1953 44.7578ZM51.7109 45.0469V38.5469H53.1641V47H51.7812L51.7109 45.0469ZM51.9844 43.2656L52.5859 43.25C52.5859 43.8125 52.526 44.3333 52.4062 44.8125C52.2917 45.2865 52.1042 45.6979 51.8438 46.0469C51.5833 46.3958 51.2422 46.6693 50.8203 46.8672C50.3984 47.0599 49.8854 47.1562 49.2812 47.1562C48.8698 47.1562 48.4922 47.0964 48.1484 46.9766C47.8099 46.8568 47.5182 46.6719 47.2734 46.4219C47.0286 46.1719 46.8385 45.8464 46.7031 45.4453C46.5729 45.0443 46.5078 44.5625 46.5078 44V38.5469H47.9531V44.0156C47.9531 44.3958 47.9948 44.7109 48.0781 44.9609C48.1667 45.2057 48.2839 45.401 48.4297 45.5469C48.5807 45.6875 48.7474 45.7865 48.9297 45.8438C49.1172 45.901 49.3099 45.9297 49.5078 45.9297C50.1224 45.9297 50.6094 45.8125 50.9688 45.5781C51.3281 45.3385 51.5859 45.0182 51.7422 44.6172C51.9036 44.2109 51.9844 43.7604 51.9844 43.2656ZM56.8125 40.3516V47H55.3672V38.5469H56.7344L56.8125 40.3516ZM56.4688 42.4531L55.8672 42.4297C55.8724 41.8516 55.9583 41.3177 56.125 40.8281C56.2917 40.3333 56.526 39.9036 56.8281 39.5391C57.1302 39.1745 57.4896 38.8932 57.9062 38.6953C58.3281 38.4922 58.7943 38.3906 59.3047 38.3906C59.7214 38.3906 60.0964 38.4479 60.4297 38.5625C60.763 38.6719 61.0469 38.849 61.2812 39.0938C61.5208 39.3385 61.7031 39.6562 61.8281 40.0469C61.9531 40.4323 62.0156 40.9036 62.0156 41.4609V47H60.5625V41.4453C60.5625 41.0026 60.4974 40.6484 60.3672 40.3828C60.237 40.112 60.0469 39.9167 59.7969 39.7969C59.5469 39.6719 59.2396 39.6094 58.875 39.6094C58.5156 39.6094 58.1875 39.6849 57.8906 39.8359C57.599 39.987 57.3464 40.1953 57.1328 40.4609C56.9245 40.7266 56.7604 41.0312 56.6406 41.375C56.526 41.7135 56.4688 42.0729 56.4688 42.4531ZM69.6875 38.5469H71V46.8203C71 47.5651 70.849 48.2005 70.5469 48.7266C70.2448 49.2526 69.8229 49.651 69.2812 49.9219C68.7448 50.1979 68.125 50.3359 67.4219 50.3359C67.1302 50.3359 66.7865 50.2891 66.3906 50.1953C66 50.1068 65.6146 49.9531 65.2344 49.7344C64.8594 49.5208 64.5443 49.2318 64.2891 48.8672L65.0469 48.0078C65.401 48.4349 65.7708 48.7318 66.1562 48.8984C66.5469 49.0651 66.9323 49.1484 67.3125 49.1484C67.7708 49.1484 68.1667 49.0625 68.5 48.8906C68.8333 48.7188 69.0911 48.4635 69.2734 48.125C69.4609 47.7917 69.5547 47.3802 69.5547 46.8906V40.4062L69.6875 38.5469ZM63.8672 42.8672V42.7031C63.8672 42.0573 63.9427 41.4714 64.0938 40.9453C64.25 40.4141 64.4714 39.9583 64.7578 39.5781C65.0495 39.1979 65.401 38.9062 65.8125 38.7031C66.224 38.4948 66.6875 38.3906 67.2031 38.3906C67.7344 38.3906 68.1979 38.4844 68.5938 38.6719C68.9948 38.8542 69.3333 39.1224 69.6094 39.4766C69.8906 39.8255 70.112 40.2474 70.2734 40.7422C70.4349 41.237 70.5469 41.7969 70.6094 42.4219V43.1406C70.5521 43.7604 70.4401 44.3177 70.2734 44.8125C70.112 45.3073 69.8906 45.7292 69.6094 46.0781C69.3333 46.4271 68.9948 46.6953 68.5938 46.8828C68.1927 47.0651 67.724 47.1562 67.1875 47.1562C66.6823 47.1562 66.224 47.0495 65.8125 46.8359C65.4062 46.6224 65.0573 46.3229 64.7656 45.9375C64.474 45.5521 64.25 45.099 64.0938 44.5781C63.9427 44.0521 63.8672 43.4818 63.8672 42.8672ZM65.3125 42.7031V42.8672C65.3125 43.2891 65.3542 43.6849 65.4375 44.0547C65.526 44.4245 65.6589 44.75 65.8359 45.0312C66.0182 45.3125 66.25 45.5339 66.5312 45.6953C66.8125 45.8516 67.1484 45.9297 67.5391 45.9297C68.0182 45.9297 68.4141 45.8281 68.7266 45.625C69.0391 45.4219 69.2865 45.1536 69.4688 44.8203C69.6562 44.487 69.8021 44.125 69.9062 43.7344V41.8516C69.849 41.5651 69.7604 41.2891 69.6406 41.0234C69.526 40.7526 69.375 40.513 69.1875 40.3047C69.0052 40.0911 68.7786 39.9219 68.5078 39.7969C68.237 39.6719 67.9193 39.6094 67.5547 39.6094C67.1589 39.6094 66.8177 39.6927 66.5312 39.8594C66.25 40.0208 66.0182 40.2448 65.8359 40.5312C65.6589 40.8125 65.526 41.1406 65.4375 41.5156C65.3542 41.8854 65.3125 42.2812 65.3125 42.7031Z" fill="black"/>
  <defs>
    <clipPath id="clip0_10_597">
      <rect width="200" height="35.3882" fill="white" transform="translate(1)"/>
    </clipPath>
  </defs>
</svg>
